<svg xmlns="http://www.w3.org/2000/svg" xmlns:xlink="http://www.w3.org/1999/xlink" width="300" zoomAndPan="magnify" viewBox="0 0 224.87999 225" height="300" preserveAspectRatio="xMidYMid meet" version="1.2"><defs><clipPath id="410993c5ee"><path d="M 47 17 L 224.761719 17 L 224.761719 207.933594 L 47 207.933594 Z M 47 17 "/></clipPath></defs><g id="16a7a582c6"><path style=" stroke:none;fill-rule:nonzero;fill:#d9d9d9;fill-opacity:1;" d="M 13.003906 59.929688 C 13.140625 60.378906 13.316406 60.84375 13.480469 61.339844 C 13.566406 61.589844 13.65625 61.84375 13.746094 62.101562 C 13.835938 62.359375 13.953125 62.617188 14.058594 62.886719 C 14.167969 63.148438 14.277344 63.421875 14.390625 63.699219 C 14.507812 63.972656 14.609375 64.257812 14.75 64.535156 C 15.015625 65.09375 15.289062 65.667969 15.570312 66.265625 C 15.882812 66.839844 16.203125 67.433594 16.53125 68.039062 C 16.878906 68.632812 17.25 69.230469 17.617188 69.839844 C 18.015625 70.433594 18.421875 71.035156 18.832031 71.644531 C 19.273438 72.230469 19.703125 72.835938 20.167969 73.421875 C 21.101562 74.59375 22.082031 75.753906 23.132812 76.84375 L 23.921875 77.664062 C 24.191406 77.929688 24.464844 78.195312 24.734375 78.460938 C 25.265625 78.996094 25.835938 79.488281 26.382812 79.992188 C 26.945312 80.484375 27.507812 80.960938 28.070312 81.429688 C 28.644531 81.882812 29.195312 82.347656 29.769531 82.765625 C 30.050781 82.976562 30.332031 83.191406 30.613281 83.398438 C 30.894531 83.601562 31.175781 83.800781 31.457031 84 C 32.003906 84.402344 32.570312 84.761719 33.105469 85.128906 C 34.195312 85.835938 35.234375 86.488281 36.21875 87.046875 C 37.195312 87.621094 38.109375 88.105469 38.925781 88.523438 C 39.742188 88.941406 40.460938 89.289062 41.054688 89.558594 C 41.648438 89.828125 42.117188 90.03125 42.4375 90.160156 C 42.457031 90.167969 42.476562 90.175781 42.496094 90.183594 C 42.835938 89.265625 43.160156 88.125 43.273438 87.726562 C 45.207031 80.109375 44.757812 73.585938 42.871094 68.03125 L 38.085938 75.402344 L 39.988281 71.457031 C 41.648438 68.023438 41.40625 63.964844 39.328125 60.765625 C 37.726562 58.296875 35.847656 56.082031 33.835938 54.097656 L 30.023438 66.820312 L 31.28125 59.273438 C 31.992188 55 30.207031 50.667969 26.640625 48.210938 C 24.71875 46.882812 22.8125 45.730469 21.03125 44.734375 L 19.539062 53.648438 L 19.738281 48.628906 C 19.851562 45.832031 18.292969 43.226562 15.765625 42.011719 C 14.210938 41.265625 12.949219 40.699219 12.125 40.292969 C 4.925781 36.734375 1.503906 32.4375 1.503906 32.4375 C 0.511719 38.46875 0.0273438 44.75 0.449219 50.933594 C 0.578125 52.816406 1.46875 54.5625 2.910156 55.78125 L 6.886719 59.132812 L 0.898438 55.257812 C 1.265625 57.851562 1.8125 60.417969 2.574219 62.921875 C 2.71875 63.394531 2.871094 63.871094 3.035156 64.335938 C 3.769531 66.414062 5.429688 68.03125 7.539062 68.679688 L 11.957031 70.039062 L 4.972656 68.824219 C 5.101562 69.082031 5.226562 69.34375 5.363281 69.597656 C 6.648438 71.984375 8.1875 74.222656 9.925781 76.304688 C 11.335938 77.992188 13.371094 79.027344 15.5625 79.203125 L 19.15625 79.488281 L 13.152344 79.769531 C 14.433594 81.011719 15.789062 82.183594 17.207031 83.273438 C 24.027344 88.535156 32.210938 91.699219 40.738281 92.71875 C 40.457031 92.574219 40.125 92.40625 39.742188 92.199219 C 39.128906 91.875 38.398438 91.460938 37.570312 90.976562 C 36.746094 90.480469 35.824219 89.914062 34.847656 89.257812 C 33.859375 88.609375 32.824219 87.867188 31.742188 87.0625 C 31.207031 86.648438 30.648438 86.242188 30.105469 85.789062 C 29.832031 85.5625 29.554688 85.339844 29.273438 85.113281 C 29 84.878906 28.722656 84.640625 28.441406 84.402344 C 27.878906 83.933594 27.335938 83.417969 26.773438 82.910156 C 26.226562 82.394531 25.671875 81.863281 25.128906 81.320312 C 24.59375 80.761719 24.039062 80.21875 23.527344 79.632812 C 23.265625 79.34375 23.003906 79.054688 22.738281 78.765625 L 21.984375 77.871094 C 20.972656 76.679688 20.039062 75.421875 19.15625 74.164062 C 18.71875 73.535156 18.316406 72.886719 17.902344 72.257812 C 17.519531 71.613281 17.144531 70.972656 16.777344 70.339844 C 16.441406 69.691406 16.101562 69.058594 15.785156 68.433594 C 15.492188 67.796875 15.203125 67.175781 14.921875 66.566406 C 14.675781 65.949219 14.433594 65.347656 14.199219 64.761719 C 14.078125 64.472656 13.988281 64.175781 13.890625 63.890625 C 13.792969 63.605469 13.699219 63.324219 13.605469 63.046875 C 13.515625 62.773438 13.414062 62.507812 13.339844 62.238281 C 13.265625 61.972656 13.191406 61.710938 13.121094 61.457031 C 12.984375 60.945312 12.839844 60.464844 12.730469 60.007812 C 12.539062 59.085938 12.34375 58.285156 12.230469 57.621094 C 12.023438 56.289062 11.90625 55.527344 11.90625 55.527344 C 11.90625 55.527344 12.070312 56.277344 12.359375 57.59375 C 12.511719 58.246094 12.757812 59.027344 13.003906 59.929688 "/><g clip-rule="nonzero" clip-path="url(#410993c5ee)"><path style=" stroke:none;fill-rule:nonzero;fill:#ffffff;fill-opacity:1;" d="M 224.527344 119.390625 C 224.527344 117.632812 223.101562 116.207031 221.34375 116.207031 C 219.585938 116.207031 218.164062 117.632812 218.164062 119.390625 L 218.164062 119.476562 C 218.164062 164.75 181.332031 201.578125 136.0625 201.578125 C 90.789062 201.578125 53.960938 164.75 53.960938 119.476562 C 53.960938 110.171875 55.53125 100.988281 58.570312 92.308594 C 70.039062 93.761719 79.660156 92.058594 87.722656 88.453125 L 75.304688 81.945312 L 81.855469 84.386719 C 87.554688 86.507812 93.960938 85.519531 98.734375 81.746094 C 102.417969 78.835938 105.65625 75.523438 108.503906 72.03125 L 87.734375 67.871094 L 99.910156 68.742188 C 106.800781 69.238281 113.414062 65.761719 116.789062 59.734375 C 118.609375 56.480469 120.160156 53.285156 121.476562 50.3125 L 107.097656 49.261719 L 115.09375 48.832031 C 119.558594 48.597656 123.460938 45.734375 125.011719 41.542969 C 125.96875 38.960938 126.679688 36.871094 127.203125 35.503906 C 131.789062 23.542969 138.097656 17.46875 138.097656 17.46875 C 128.378906 16.792969 118.328125 16.960938 108.570312 18.546875 C 105.601562 19.03125 102.957031 20.703125 101.242188 23.171875 L 96.503906 29.984375 L 101.773438 19.898438 C 97.703125 20.871094 93.714844 22.117188 89.851562 23.699219 C 89.117188 23.996094 88.390625 24.3125 87.671875 24.644531 C 84.480469 26.117188 82.15625 28.996094 81.441406 32.4375 L 79.941406 39.65625 L 80.832031 28.382812 C 80.441406 28.628906 80.042969 28.867188 79.660156 29.121094 C 76.066406 31.515625 72.738281 34.292969 69.691406 37.363281 C 67.21875 39.851562 65.875 43.238281 65.925781 46.746094 L 66.011719 52.496094 L 64.664062 42.996094 C 62.882812 45.222656 61.222656 47.546875 59.699219 49.957031 C 52.367188 61.570312 48.554688 75.039062 48.199219 88.730469 C 48.382812 88.265625 48.609375 87.710938 48.875 87.074219 C 49.300781 86.054688 49.847656 84.832031 50.5 83.445312 C 51.164062 82.0625 51.925781 80.515625 52.820312 78.863281 C 53.703125 77.203125 54.730469 75.441406 55.84375 73.605469 C 56.425781 72.699219 56.992188 71.75 57.628906 70.820312 C 57.941406 70.347656 58.257812 69.875 58.578125 69.394531 C 58.910156 68.925781 59.242188 68.453125 59.582031 67.972656 C 60.246094 67.007812 60.980469 66.066406 61.699219 65.101562 C 62.441406 64.152344 63.199219 63.195312 63.984375 62.25 C 64.789062 61.320312 65.566406 60.359375 66.421875 59.457031 C 66.84375 58.996094 67.261719 58.539062 67.683594 58.078125 L 68.992188 56.742188 C 70.734375 54.960938 72.589844 53.289062 74.457031 51.703125 C 75.394531 50.917969 76.363281 50.179688 77.300781 49.433594 C 78.273438 48.726562 79.230469 48.03125 80.183594 47.359375 C 81.160156 46.726562 82.113281 46.097656 83.058594 45.5 C 84.027344 44.9375 84.972656 44.386719 85.894531 43.851562 C 86.84375 43.367188 87.761719 42.894531 88.652344 42.4375 C 89.09375 42.199219 89.550781 42.011719 89.988281 41.816406 C 90.429688 41.617188 90.863281 41.425781 91.285156 41.234375 C 91.710938 41.054688 92.117188 40.851562 92.53125 40.695312 C 92.945312 40.535156 93.351562 40.382812 93.746094 40.230469 C 94.535156 39.9375 95.277344 39.632812 95.988281 39.394531 C 97.425781 38.953125 98.660156 38.523438 99.703125 38.25 C 101.789062 37.722656 102.980469 37.421875 102.980469 37.421875 C 102.980469 37.421875 101.8125 37.792969 99.765625 38.449219 C 98.746094 38.789062 97.542969 39.292969 96.148438 39.820312 C 95.460938 40.101562 94.742188 40.449219 93.980469 40.789062 C 93.601562 40.960938 93.210938 41.136719 92.8125 41.316406 C 92.414062 41.5 92.019531 41.722656 91.613281 41.929688 C 91.207031 42.144531 90.792969 42.359375 90.371094 42.582031 C 89.953125 42.804688 89.515625 43.011719 89.09375 43.277344 C 88.25 43.78125 87.375 44.300781 86.472656 44.835938 C 85.601562 45.417969 84.710938 46.011719 83.796875 46.625 C 82.90625 47.265625 82.011719 47.941406 81.097656 48.617188 C 80.214844 49.339844 79.320312 50.070312 78.414062 50.8125 C 77.546875 51.601562 76.652344 52.375 75.785156 53.199219 C 74.070312 54.855469 72.371094 56.582031 70.792969 58.417969 L 69.605469 59.789062 C 69.226562 60.257812 68.847656 60.730469 68.46875 61.199219 C 67.699219 62.125 67 63.105469 66.28125 64.046875 C 65.578125 65.007812 64.90625 65.976562 64.246094 66.9375 C 63.613281 67.917969 62.960938 68.863281 62.378906 69.835938 C 62.082031 70.316406 61.789062 70.796875 61.496094 71.265625 C 61.21875 71.746094 60.941406 72.226562 60.667969 72.695312 C 60.109375 73.628906 59.621094 74.578125 59.121094 75.484375 C 58.222656 77.191406 57.402344 78.828125 56.691406 80.371094 C 50.722656 92.476562 47.597656 105.855469 47.597656 119.476562 C 47.597656 131.417969 49.933594 143.003906 54.550781 153.914062 C 59.003906 164.449219 65.382812 173.90625 73.507812 182.03125 C 81.628906 190.15625 91.089844 196.535156 101.625 200.988281 C 112.535156 205.605469 124.121094 207.941406 136.0625 207.941406 C 148.003906 207.941406 159.589844 205.605469 170.496094 200.988281 C 181.03125 196.535156 190.492188 190.15625 198.617188 182.03125 C 206.738281 173.90625 213.117188 164.449219 217.574219 153.914062 C 222.1875 143.003906 224.527344 131.417969 224.527344 119.476562 L 224.527344 119.390625 "/></g><path style=" stroke:none;fill-rule:nonzero;fill:#ffffff;fill-opacity:1;" d="M 154.316406 115.832031 C 153.203125 117.203125 151.894531 118.40625 150.417969 119.367188 C 143.074219 124.152344 138.136719 119.214844 138.136719 119.214844 C 138.136719 119.214844 137.90625 119.023438 137.582031 118.65625 C 137.59375 118.648438 137.601562 118.636719 137.609375 118.625 C 137.722656 118.484375 137.882812 118.28125 138.097656 118.027344 C 138.523438 117.511719 139.144531 116.777344 139.910156 115.917969 C 140.675781 115.058594 141.59375 114.074219 142.605469 113.050781 C 143.621094 112.027344 144.734375 110.964844 145.894531 109.957031 C 147.054688 108.945312 148.261719 107.992188 149.449219 107.175781 C 150.636719 106.359375 151.804688 105.679688 152.851562 105.195312 C 153.375 104.953125 153.867188 104.757812 154.3125 104.609375 C 154.53125 104.53125 154.746094 104.46875 154.941406 104.410156 C 155.039062 104.386719 155.132812 104.363281 155.222656 104.339844 C 155.269531 104.324219 155.3125 104.316406 155.355469 104.304688 C 155.398438 104.292969 155.441406 104.285156 155.484375 104.277344 C 155.566406 104.257812 155.644531 104.242188 155.71875 104.226562 C 155.792969 104.210938 155.863281 104.199219 155.925781 104.1875 C 156.054688 104.164062 156.167969 104.144531 156.257812 104.136719 C 156.4375 104.113281 156.535156 104.101562 156.535156 104.101562 C 156.535156 104.101562 156.4375 104.105469 156.253906 104.109375 C 156.164062 104.109375 156.050781 104.121094 155.921875 104.128906 C 155.855469 104.136719 155.78125 104.140625 155.707031 104.144531 C 155.632812 104.15625 155.550781 104.164062 155.464844 104.175781 C 155.425781 104.179688 155.378906 104.1875 155.335938 104.191406 C 155.289062 104.195312 155.246094 104.203125 155.199219 104.210938 C 155.105469 104.226562 155.007812 104.242188 154.902344 104.257812 C 154.703125 104.296875 154.480469 104.339844 154.25 104.394531 C 153.785156 104.503906 153.265625 104.652344 152.707031 104.847656 C 151.59375 105.238281 150.339844 105.8125 149.050781 106.53125 C 147.757812 107.246094 146.433594 108.097656 145.152344 109.011719 C 143.871094 109.925781 142.632812 110.894531 141.496094 111.835938 C 140.363281 112.78125 139.332031 113.695312 138.464844 114.496094 C 137.597656 115.296875 136.890625 115.984375 136.398438 116.472656 C 136.351562 116.523438 136.308594 116.566406 136.265625 116.609375 C 135.007812 113.820312 134.710938 108.941406 141.96875 102.683594 C 153.625 92.636719 168.164062 105.230469 168.164062 105.230469 C 163.152344 105.492188 156.621094 112.984375 154.316406 115.832031 "/><path style=" stroke:none;fill-rule:nonzero;fill:#ffffff;fill-opacity:1;" d="M 118.429688 119.980469 C 119.292969 120.882812 120.289062 121.652344 121.386719 122.238281 C 126.847656 125.175781 130.035156 121.402344 130.035156 121.402344 C 130.035156 121.402344 130.1875 121.253906 130.394531 120.972656 C 130.382812 120.964844 130.378906 120.957031 130.371094 120.949219 C 130.285156 120.859375 130.15625 120.726562 129.992188 120.558594 C 129.660156 120.21875 129.179688 119.742188 128.585938 119.179688 C 127.996094 118.625 127.292969 117.980469 126.515625 117.320312 C 125.742188 116.660156 124.890625 115.976562 124.011719 115.335938 C 123.136719 114.695312 122.226562 114.09375 121.339844 113.589844 C 120.457031 113.082031 119.59375 112.675781 118.824219 112.398438 C 118.445312 112.257812 118.082031 112.148438 117.761719 112.070312 C 117.597656 112.027344 117.445312 112 117.304688 111.96875 C 117.234375 111.957031 117.167969 111.945312 117.101562 111.933594 C 117.070312 111.929688 117.039062 111.921875 117.007812 111.917969 C 116.976562 111.914062 116.945312 111.910156 116.917969 111.90625 C 116.855469 111.898438 116.800781 111.890625 116.746094 111.882812 C 116.695312 111.878906 116.644531 111.875 116.597656 111.871094 C 116.503906 111.859375 116.425781 111.855469 116.359375 111.851562 C 116.234375 111.847656 116.164062 111.84375 116.164062 111.84375 C 116.164062 111.84375 116.234375 111.839844 116.359375 111.832031 C 116.425781 111.828125 116.503906 111.828125 116.597656 111.828125 C 116.648438 111.828125 116.695312 111.828125 116.75 111.828125 C 116.804688 111.828125 116.859375 111.832031 116.921875 111.832031 C 116.953125 111.832031 116.980469 111.835938 117.015625 111.835938 C 117.046875 111.835938 117.078125 111.839844 117.109375 111.839844 C 117.179688 111.847656 117.25 111.851562 117.320312 111.855469 C 117.46875 111.875 117.625 111.890625 117.792969 111.917969 C 118.125 111.964844 118.5 112.039062 118.902344 112.144531 C 119.714844 112.351562 120.632812 112.679688 121.585938 113.109375 C 122.539062 113.535156 123.523438 114.058594 124.480469 114.628906 C 125.4375 115.191406 126.367188 115.804688 127.226562 116.402344 C 128.082031 116.996094 128.859375 117.578125 129.519531 118.09375 C 130.179688 118.605469 130.722656 119.046875 131.09375 119.363281 C 131.128906 119.394531 131.164062 119.421875 131.199219 119.449219 C 131.917969 117.410156 131.839844 113.953125 126.34375 109.976562 C 117.53125 103.589844 108.03125 113.335938 108.03125 113.335938 C 111.582031 113.21875 116.632812 118.113281 118.429688 119.980469 "/><path style=" stroke:none;fill-rule:nonzero;fill:#ffffff;fill-opacity:1;" d="M 128.402344 100.878906 C 128.230469 101.6875 128.175781 102.515625 128.257812 103.335938 C 128.671875 107.417969 131.921875 107.769531 131.921875 107.769531 C 131.921875 107.769531 132.058594 107.796875 132.289062 107.804688 C 132.289062 107.800781 132.292969 107.792969 132.292969 107.785156 C 132.308594 107.707031 132.335938 107.585938 132.367188 107.433594 C 132.429688 107.125 132.515625 106.6875 132.601562 106.15625 C 132.691406 105.621094 132.78125 105 132.855469 104.328125 C 132.929688 103.65625 132.988281 102.941406 133.015625 102.222656 C 133.042969 101.503906 133.035156 100.78125 132.984375 100.109375 C 132.933594 99.4375 132.839844 98.8125 132.707031 98.289062 C 132.640625 98.027344 132.570312 97.789062 132.492188 97.582031 C 132.457031 97.480469 132.417969 97.386719 132.378906 97.296875 C 132.359375 97.253906 132.339844 97.210938 132.324219 97.171875 C 132.316406 97.152344 132.304688 97.132812 132.296875 97.113281 C 132.289062 97.09375 132.277344 97.078125 132.269531 97.058594 C 132.25 97.023438 132.234375 96.992188 132.21875 96.957031 C 132.203125 96.925781 132.183594 96.898438 132.171875 96.871094 C 132.140625 96.816406 132.113281 96.773438 132.089844 96.738281 C 132.046875 96.664062 132.023438 96.625 132.023438 96.625 C 132.023438 96.625 132.050781 96.660156 132.101562 96.730469 C 132.128906 96.761719 132.160156 96.804688 132.195312 96.859375 C 132.210938 96.882812 132.230469 96.910156 132.25 96.941406 C 132.269531 96.96875 132.289062 97 132.308594 97.035156 C 132.320312 97.050781 132.332031 97.070312 132.34375 97.089844 C 132.355469 97.105469 132.363281 97.125 132.375 97.144531 C 132.398438 97.179688 132.421875 97.222656 132.445312 97.265625 C 132.492188 97.347656 132.542969 97.441406 132.589844 97.542969 C 132.6875 97.746094 132.785156 97.976562 132.875 98.238281 C 133.0625 98.757812 133.21875 99.386719 133.339844 100.0625 C 133.457031 100.746094 133.535156 101.480469 133.578125 102.214844 C 133.621094 102.949219 133.632812 103.683594 133.621094 104.378906 C 133.613281 105.066406 133.582031 105.710938 133.546875 106.261719 C 133.507812 106.8125 133.464844 107.273438 133.429688 107.597656 C 133.429688 107.628906 133.425781 107.65625 133.421875 107.683594 C 134.808594 107.324219 136.671875 106 136.820312 101.515625 C 137.054688 94.316406 128.195312 92.71875 128.195312 92.71875 C 129.574219 94.621094 128.761719 99.203125 128.402344 100.878906 "/><path style=" stroke:none;fill-rule:nonzero;fill:#b4b4b4;fill-opacity:1;" d="M 212.867188 131.964844 C 212.433594 132.191406 211.976562 132.414062 211.488281 132.621094 C 211.246094 132.726562 210.980469 132.828125 210.699219 132.933594 L 210.339844 133.058594 C 210.171875 133.113281 210.058594 133.140625 209.910156 133.183594 C 208.828125 133.53125 207.578125 133.75 206.261719 133.828125 C 204.9375 133.90625 203.546875 133.773438 202.246094 133.488281 C 200.933594 133.207031 199.714844 132.777344 198.566406 132.300781 C 197.410156 131.820312 196.332031 131.277344 195.261719 130.726562 C 194.757812 130.460938 194.242188 130.195312 193.726562 129.921875 C 193.191406 129.65625 192.652344 129.378906 192.109375 129.105469 C 191.566406 128.832031 191.019531 128.550781 190.46875 128.273438 L 190.054688 128.058594 L 189.847656 127.953125 C 189.855469 127.957031 189.757812 127.90625 189.851562 127.953125 L 189.804688 127.9375 L 189.710938 127.894531 C 189.464844 127.78125 189.210938 127.679688 188.957031 127.578125 C 187.925781 127.179688 186.820312 126.882812 185.660156 126.707031 C 185.078125 126.617188 184.488281 126.5625 183.890625 126.53125 L 183.441406 126.511719 L 183.035156 126.507812 L 182.496094 126.511719 L 182.078125 126.53125 C 180.863281 126.589844 179.613281 126.78125 178.503906 127.074219 L 178.246094 127.144531 L 178.179688 127.160156 C 178.210938 127.152344 178.15625 127.167969 178.152344 127.167969 L 178.050781 127.199219 C 177.910156 127.242188 177.773438 127.28125 177.636719 127.328125 C 177.363281 127.417969 177.089844 127.519531 176.816406 127.625 C 176.269531 127.839844 175.730469 128.089844 175.1875 128.367188 C 174.101562 128.921875 173.023438 129.59375 171.898438 130.316406 C 170.757812 131.042969 169.582031 131.832031 168.164062 132.585938 C 167.457031 132.964844 166.695312 133.335938 165.835938 133.667969 L 165.515625 133.789062 L 165.144531 133.921875 L 164.816406 134.03125 L 164.542969 134.113281 L 164.402344 134.15625 L 164.316406 134.179688 L 164.140625 134.222656 L 163.789062 134.316406 C 163.554688 134.375 163.324219 134.4375 163.082031 134.492188 C 161.144531 134.917969 158.871094 135.007812 156.800781 134.679688 C 154.726562 134.34375 152.957031 133.683594 151.40625 132.996094 C 149.859375 132.296875 148.511719 131.542969 147.207031 130.820312 C 145.929688 130.125 144.652344 129.429688 143.371094 128.734375 C 141.964844 127.949219 140.386719 127.4375 138.71875 127.183594 C 139.050781 130.050781 139.742188 132.832031 141.484375 135.269531 C 141.75 135.644531 142.082031 135.972656 142.46875 136.238281 L 142.46875 136.242188 C 142.96875 136.640625 143.449219 136.875 143.90625 136.984375 C 144.015625 137.039062 144.125 137.097656 144.238281 137.15625 C 144.359375 137.226562 144.441406 137.273438 144.566406 137.347656 C 144.796875 137.484375 145.003906 137.617188 145.21875 137.753906 C 145.425781 137.890625 145.632812 138.03125 145.84375 138.167969 C 146.253906 138.441406 146.660156 138.703125 147.070312 138.933594 C 147.171875 138.988281 147.277344 139.046875 147.378906 139.097656 C 147.429688 139.125 147.480469 139.148438 147.535156 139.175781 L 147.574219 139.195312 L 147.59375 139.203125 L 147.601562 139.207031 C 147.625 139.214844 147.585938 139.199219 147.59375 139.203125 L 147.683594 139.242188 L 147.859375 139.320312 L 147.953125 139.355469 L 148.027344 139.382812 L 148.183594 139.445312 L 148.261719 139.472656 L 148.34375 139.5 C 149.238281 139.800781 150.226562 139.933594 151.242188 139.945312 C 152.257812 139.964844 153.292969 139.871094 154.324219 139.753906 C 155.355469 139.636719 156.382812 139.5 157.386719 139.40625 C 158.390625 139.3125 159.382812 139.269531 160.308594 139.320312 C 161.242188 139.367188 162.097656 139.472656 162.890625 139.554688 C 163.683594 139.640625 164.40625 139.699219 165.046875 139.710938 C 165.6875 139.722656 166.25 139.683594 166.707031 139.625 C 166.933594 139.585938 167.140625 139.5625 167.3125 139.515625 C 167.488281 139.472656 167.640625 139.445312 167.757812 139.402344 C 167.996094 139.328125 168.121094 139.289062 168.121094 139.289062 C 168.121094 139.289062 168 139.339844 167.765625 139.429688 C 167.652344 139.480469 167.503906 139.523438 167.332031 139.578125 C 167.15625 139.640625 166.957031 139.683594 166.726562 139.742188 C 166.269531 139.839844 165.707031 139.925781 165.050781 139.964844 C 164.402344 140.003906 163.664062 140.003906 162.863281 139.984375 C 162.066406 139.964844 161.199219 139.933594 160.308594 139.957031 C 159.40625 139.984375 158.472656 140.097656 157.503906 140.269531 C 156.53125 140.4375 155.53125 140.65625 154.496094 140.859375 C 153.882812 140.980469 153.257812 141.09375 152.621094 141.179688 C 152.707031 141.382812 152.785156 141.59375 152.871094 141.792969 C 152.921875 141.917969 152.980469 142.03125 153.042969 142.140625 C 153.058594 142.164062 153.074219 142.1875 153.09375 142.214844 L 153.097656 142.226562 C 153.09375 142.21875 153.121094 142.246094 153.085938 142.207031 L 153.089844 142.214844 L 153.105469 142.238281 L 153.148438 142.28125 C 153.171875 142.3125 153.199219 142.34375 153.222656 142.371094 C 153.242188 142.386719 153.261719 142.402344 153.28125 142.421875 C 153.3125 142.457031 153.375 142.492188 153.425781 142.53125 C 153.480469 142.566406 153.542969 142.597656 153.605469 142.628906 C 153.671875 142.65625 153.738281 142.6875 153.8125 142.707031 L 153.921875 142.742188 L 154.039062 142.769531 C 154.355469 142.84375 154.714844 142.871094 155.089844 142.894531 C 155.464844 142.921875 155.859375 142.9375 156.265625 143.019531 L 156.40625 143.046875 C 156.453125 143.054688 156.5 143.066406 156.550781 143.078125 L 156.851562 143.164062 C 156.949219 143.195312 157.039062 143.230469 157.132812 143.265625 C 157.179688 143.285156 157.230469 143.300781 157.273438 143.320312 L 157.40625 143.382812 C 157.765625 143.539062 158.097656 143.746094 158.398438 143.957031 C 158.472656 144.007812 158.546875 144.0625 158.621094 144.113281 C 158.691406 144.171875 158.761719 144.226562 158.828125 144.28125 C 158.96875 144.390625 159.09375 144.507812 159.222656 144.617188 C 159.34375 144.730469 159.460938 144.84375 159.574219 144.953125 C 159.683594 145.066406 159.792969 145.171875 159.890625 145.277344 C 160.089844 145.488281 160.265625 145.6875 160.417969 145.863281 C 160.574219 146.042969 160.703125 146.199219 160.808594 146.328125 C 161.023438 146.589844 161.144531 146.738281 161.144531 146.738281 C 161.144531 146.738281 161.011719 146.597656 160.777344 146.359375 C 160.660156 146.238281 160.515625 146.09375 160.347656 145.929688 C 160.183594 145.765625 159.992188 145.585938 159.777344 145.394531 C 159.671875 145.296875 159.554688 145.199219 159.441406 145.097656 C 159.320312 145 159.195312 144.902344 159.066406 144.800781 C 158.933594 144.707031 158.804688 144.601562 158.660156 144.507812 C 158.589844 144.460938 158.519531 144.414062 158.445312 144.363281 C 158.371094 144.320312 158.296875 144.277344 158.222656 144.230469 C 157.917969 144.054688 157.59375 143.886719 157.25 143.769531 L 157.121094 143.722656 C 157.078125 143.710938 157.035156 143.699219 156.992188 143.6875 C 156.902344 143.664062 156.816406 143.632812 156.726562 143.613281 L 156.46875 143.5625 C 156.425781 143.554688 156.378906 143.546875 156.332031 143.542969 L 156.1875 143.527344 C 155.832031 143.488281 155.457031 143.5 155.074219 143.507812 C 154.695312 143.511719 154.308594 143.519531 153.914062 143.464844 C 153.523438 143.410156 153.121094 143.296875 152.773438 143.027344 C 152.730469 142.996094 152.683594 142.957031 152.640625 142.921875 C 152.605469 142.890625 152.582031 142.863281 152.550781 142.835938 L 152.507812 142.796875 L 152.488281 142.773438 L 152.484375 142.769531 L 152.460938 142.738281 L 152.449219 142.726562 C 151.808594 141.933594 151.617188 141.421875 150.539062 141.246094 C 149.671875 141.105469 148.761719 141.285156 147.898438 141.070312 L 147.792969 141.046875 L 147.683594 141.011719 L 147.46875 140.953125 L 147.359375 140.921875 L 147.265625 140.886719 L 147.082031 140.828125 L 146.988281 140.796875 L 146.867188 140.75 C 146.804688 140.726562 146.734375 140.699219 146.667969 140.671875 C 146.539062 140.617188 146.410156 140.5625 146.285156 140.503906 C 145.777344 140.277344 145.308594 140.019531 144.871094 139.777344 C 144.652344 139.660156 144.441406 139.539062 144.226562 139.421875 C 144.019531 139.3125 143.808594 139.199219 143.617188 139.109375 C 143.617188 139.105469 143.613281 139.105469 143.613281 139.105469 C 143.660156 139.203125 143.707031 139.300781 143.746094 139.402344 C 143.78125 139.480469 143.828125 139.601562 143.863281 139.699219 C 143.898438 139.796875 143.929688 139.898438 143.960938 139.996094 C 144.085938 140.394531 144.179688 140.78125 144.277344 141.148438 C 144.375 141.519531 144.480469 141.859375 144.621094 142.199219 C 144.683594 142.355469 144.765625 142.519531 144.84375 142.675781 C 144.886719 142.753906 144.929688 142.832031 144.96875 142.910156 C 145.011719 142.984375 145.0625 143.058594 145.105469 143.132812 C 145.292969 143.429688 145.492188 143.707031 145.703125 143.949219 C 145.917969 144.195312 146.128906 144.417969 146.34375 144.609375 C 146.398438 144.65625 146.449219 144.703125 146.5 144.75 C 146.554688 144.792969 146.609375 144.835938 146.660156 144.878906 C 146.757812 144.964844 146.859375 145.035156 146.953125 145.105469 C 147.046875 145.179688 147.140625 145.238281 147.226562 145.296875 C 147.308594 145.355469 147.390625 145.402344 147.460938 145.445312 C 147.605469 145.539062 147.726562 145.601562 147.804688 145.644531 C 147.886719 145.6875 147.929688 145.710938 147.929688 145.710938 C 147.929688 145.710938 147.882812 145.699219 147.796875 145.671875 C 147.707031 145.640625 147.578125 145.601562 147.417969 145.539062 C 147.335938 145.511719 147.246094 145.476562 147.152344 145.433594 C 147.054688 145.394531 146.949219 145.351562 146.839844 145.300781 C 146.734375 145.246094 146.613281 145.191406 146.496094 145.125 C 146.4375 145.089844 146.371094 145.058594 146.3125 145.023438 C 146.25 144.988281 146.1875 144.949219 146.121094 144.910156 C 145.859375 144.753906 145.589844 144.570312 145.316406 144.351562 C 145.042969 144.136719 144.769531 143.882812 144.503906 143.601562 C 144.441406 143.53125 144.371094 143.460938 144.308594 143.382812 C 144.246094 143.308594 144.179688 143.230469 144.117188 143.15625 C 143.992188 142.992188 143.871094 142.832031 143.753906 142.652344 L 143.664062 142.515625 L 143.515625 142.265625 L 143.496094 142.234375 L 143.484375 142.21875 L 143.472656 142.195312 L 143.46875 142.191406 L 143.433594 142.121094 C 143.332031 141.9375 143.242188 141.753906 143.152344 141.574219 C 142.976562 141.210938 142.816406 140.859375 142.644531 140.546875 C 142.601562 140.46875 142.558594 140.390625 142.515625 140.316406 C 142.472656 140.242188 142.4375 140.191406 142.378906 140.105469 C 142.292969 139.976562 142.195312 139.847656 142.09375 139.730469 C 140.742188 138.148438 137.8125 137.472656 136.175781 139.03125 C 135.230469 139.9375 134.824219 141.3125 134.679688 142.578125 C 134.632812 142.992188 134.617188 143.445312 134.644531 143.9375 C 134.742188 145.636719 135.292969 146.050781 136.652344 146.894531 C 136.867188 147.03125 137.117188 147.167969 137.378906 147.320312 C 137.640625 147.476562 137.925781 147.625 138.226562 147.78125 C 138.378906 147.855469 138.53125 147.941406 138.691406 148.019531 C 138.851562 148.097656 139.019531 148.171875 139.1875 148.253906 C 139.355469 148.332031 139.527344 148.417969 139.707031 148.492188 C 139.886719 148.570312 140.066406 148.644531 140.253906 148.722656 C 140.621094 148.886719 141.015625 149.027344 141.417969 149.179688 C 141.519531 149.214844 141.617188 149.253906 141.71875 149.292969 C 141.824219 149.324219 141.929688 149.359375 142.035156 149.390625 C 142.242188 149.460938 142.453125 149.53125 142.671875 149.601562 C 142.882812 149.671875 143.105469 149.726562 143.328125 149.792969 C 143.550781 149.851562 143.769531 149.925781 144 149.972656 C 144.457031 150.082031 144.921875 150.203125 145.398438 150.289062 C 147.1875 150.617188 148.503906 150.917969 149.917969 149.496094 C 149.945312 149.46875 149.972656 149.441406 150 149.414062 L 150.042969 149.367188 L 150.054688 149.359375 L 150.074219 149.339844 L 150.09375 149.324219 C 150.152344 149.273438 150.210938 149.222656 150.265625 149.171875 C 150.320312 149.117188 150.402344 149.058594 150.46875 149.003906 C 150.539062 148.949219 150.609375 148.890625 150.683594 148.84375 C 150.972656 148.636719 151.296875 148.445312 151.644531 148.285156 C 152.335938 147.957031 153.117188 147.734375 153.90625 147.628906 C 154.300781 147.574219 154.695312 147.546875 155.085938 147.542969 C 155.273438 147.535156 155.46875 147.542969 155.660156 147.546875 C 155.851562 147.554688 156.035156 147.566406 156.21875 147.582031 C 156.953125 147.640625 157.621094 147.753906 158.195312 147.859375 C 158.765625 147.972656 159.234375 148.078125 159.566406 148.148438 C 159.898438 148.226562 160.085938 148.269531 160.085938 148.269531 C 160.085938 148.269531 159.894531 148.242188 159.558594 148.195312 C 159.222656 148.148438 158.746094 148.082031 158.167969 148.019531 C 157.59375 147.960938 156.921875 147.90625 156.207031 147.90625 C 156.027344 147.90625 155.84375 147.914062 155.660156 147.917969 C 155.480469 147.929688 155.296875 147.941406 155.105469 147.957031 C 154.734375 147.996094 154.363281 148.054688 153.996094 148.132812 C 153.265625 148.296875 152.5625 148.566406 151.96875 148.910156 C 151.671875 149.082031 151.402344 149.269531 151.167969 149.472656 C 151.105469 149.519531 151.054688 149.570312 151.003906 149.621094 C 150.976562 149.644531 150.949219 149.667969 150.925781 149.691406 C 150.898438 149.714844 150.875 149.738281 150.847656 149.769531 C 150.792969 149.824219 150.738281 149.878906 150.6875 149.9375 L 150.660156 149.960938 C 150.679688 149.945312 150.664062 149.957031 150.671875 149.953125 C 150.667969 149.957031 150.660156 149.96875 150.660156 149.96875 L 150.625 150.003906 C 150.601562 150.03125 150.582031 150.058594 150.558594 150.085938 C 150.382812 150.292969 150.21875 150.507812 150.058594 150.695312 C 150.027344 150.730469 150 150.761719 149.972656 150.792969 C 150.433594 150.808594 150.894531 150.796875 151.351562 150.789062 C 151.597656 150.789062 151.863281 150.773438 152.113281 150.761719 C 152.367188 150.746094 152.621094 150.734375 152.871094 150.71875 C 153.886719 150.667969 154.90625 150.621094 155.898438 150.707031 C 156.394531 150.753906 156.882812 150.832031 157.355469 150.949219 C 157.824219 151.074219 158.261719 151.238281 158.6875 151.449219 C 158.785156 151.503906 158.882812 151.554688 158.976562 151.605469 C 159.074219 151.660156 159.171875 151.726562 159.261719 151.785156 C 159.457031 151.902344 159.628906 152.03125 159.804688 152.15625 C 159.972656 152.28125 160.136719 152.414062 160.292969 152.542969 C 160.449219 152.671875 160.605469 152.796875 160.746094 152.925781 C 161.332031 153.4375 161.851562 153.910156 162.34375 154.296875 C 162.832031 154.679688 163.292969 154.96875 163.695312 155.167969 C 164.101562 155.351562 164.441406 155.457031 164.671875 155.503906 C 164.910156 155.550781 165.035156 155.570312 165.035156 155.570312 C 165.035156 155.570312 164.910156 155.558594 164.667969 155.53125 C 164.429688 155.496094 164.082031 155.414062 163.65625 155.25 C 163.238281 155.078125 162.746094 154.816406 162.222656 154.457031 C 161.703125 154.101562 161.144531 153.65625 160.535156 153.191406 C 160.382812 153.074219 160.222656 152.960938 160.0625 152.84375 C 159.898438 152.726562 159.734375 152.609375 159.566406 152.5 C 159.390625 152.394531 159.214844 152.28125 159.035156 152.1875 C 158.941406 152.136719 158.863281 152.085938 158.761719 152.039062 C 158.660156 151.996094 158.5625 151.949219 158.460938 151.902344 C 158.082031 151.746094 157.65625 151.609375 157.222656 151.527344 C 156.785156 151.449219 156.328125 151.40625 155.859375 151.398438 C 154.925781 151.375 153.953125 151.484375 152.949219 151.601562 C 152.695312 151.632812 152.441406 151.664062 152.1875 151.695312 C 151.925781 151.722656 151.683594 151.753906 151.417969 151.773438 C 150.894531 151.816406 150.371094 151.867188 149.847656 151.875 L 149.453125 151.890625 L 149.257812 151.898438 L 149.058594 151.898438 C 148.796875 151.898438 148.535156 151.894531 148.273438 151.894531 C 148.007812 151.894531 147.75 151.875 147.488281 151.867188 C 147.226562 151.851562 146.964844 151.847656 146.710938 151.820312 C 146.449219 151.796875 146.195312 151.773438 145.9375 151.75 C 145.742188 151.738281 145.550781 151.710938 145.359375 151.683594 C 145.441406 151.78125 145.523438 151.882812 145.605469 151.992188 L 145.660156 152.070312 L 145.695312 152.117188 L 145.722656 152.15625 C 145.757812 152.207031 145.792969 152.257812 145.828125 152.308594 C 145.898438 152.425781 145.980469 152.546875 146.046875 152.660156 C 146.1875 152.898438 146.316406 153.136719 146.445312 153.386719 C 146.707031 153.878906 146.957031 154.386719 147.265625 154.859375 C 147.421875 155.097656 147.589844 155.320312 147.78125 155.523438 L 147.84375 155.59375 L 148.015625 155.75 C 148.042969 155.78125 148.070312 155.804688 148.097656 155.824219 L 148.253906 155.953125 C 148.3125 156 148.371094 156.042969 148.433594 156.082031 C 148.910156 156.421875 149.476562 156.6875 150.058594 156.929688 C 150.640625 157.175781 151.246094 157.402344 151.832031 157.679688 L 152.050781 157.789062 L 152.164062 157.847656 L 152.265625 157.902344 L 152.46875 158.019531 C 152.535156 158.054688 152.601562 158.09375 152.671875 158.140625 C 152.804688 158.230469 152.945312 158.3125 153.070312 158.402344 C 153.195312 158.496094 153.320312 158.589844 153.445312 158.683594 C 153.925781 159.066406 154.34375 159.488281 154.703125 159.921875 C 155.0625 160.347656 155.359375 160.789062 155.59375 161.210938 C 155.722656 161.421875 155.8125 161.636719 155.914062 161.832031 C 155.957031 161.933594 156 162.035156 156.042969 162.128906 C 156.082031 162.222656 156.125 162.316406 156.152344 162.410156 C 156.292969 162.78125 156.382812 163.109375 156.449219 163.382812 C 156.480469 163.519531 156.507812 163.644531 156.53125 163.75 C 156.546875 163.859375 156.5625 163.949219 156.574219 164.023438 C 156.597656 164.171875 156.609375 164.25 156.609375 164.25 C 156.609375 164.25 156.59375 164.171875 156.558594 164.023438 C 156.542969 163.953125 156.523438 163.863281 156.5 163.753906 C 156.46875 163.652344 156.4375 163.53125 156.398438 163.398438 C 156.316406 163.128906 156.203125 162.808594 156.046875 162.457031 C 156.007812 162.367188 155.964844 162.277344 155.917969 162.183594 C 155.871094 162.09375 155.824219 161.996094 155.777344 161.902344 C 155.664062 161.714844 155.5625 161.511719 155.425781 161.316406 C 155.171875 160.914062 154.855469 160.503906 154.484375 160.113281 C 154.113281 159.71875 153.6875 159.339844 153.203125 159 C 153.085938 158.925781 152.957031 158.84375 152.835938 158.761719 C 152.710938 158.683594 152.578125 158.613281 152.453125 158.539062 C 152.390625 158.5 152.320312 158.46875 152.25 158.433594 L 151.933594 158.28125 L 151.835938 158.238281 L 151.625 158.148438 C 151.050781 157.921875 150.445312 157.730469 149.832031 157.519531 C 149.222656 157.304688 148.597656 157.0625 148.023438 156.710938 C 147.949219 156.664062 147.878906 156.621094 147.808594 156.570312 L 147.59375 156.417969 C 147.554688 156.390625 147.523438 156.363281 147.496094 156.339844 L 147.316406 156.191406 L 147.304688 156.183594 L 147.285156 156.160156 L 147.261719 156.140625 L 147.214844 156.097656 C 146.96875 155.863281 146.75 155.613281 146.5625 155.359375 C 146.179688 154.84375 145.882812 154.328125 145.601562 153.863281 C 145.460938 153.628906 145.324219 153.410156 145.1875 153.207031 C 145.117188 153.101562 145.050781 153.015625 144.984375 152.921875 C 144.945312 152.875 144.910156 152.824219 144.871094 152.777344 L 144.84375 152.738281 L 144.832031 152.722656 L 144.824219 152.71875 C 144.828125 152.722656 144.816406 152.707031 144.828125 152.722656 L 144.820312 152.714844 L 144.769531 152.652344 C 144.484375 152.316406 144.1875 152.050781 143.90625 151.835938 C 143.625 151.621094 143.359375 151.464844 143.136719 151.347656 C 143.109375 151.332031 143.078125 151.316406 143.054688 151.300781 C 143.019531 151.296875 142.992188 151.289062 142.960938 151.28125 C 142.722656 151.230469 142.484375 151.183594 142.253906 151.128906 C 142.023438 151.070312 141.792969 151.011719 141.566406 150.953125 C 141.457031 150.925781 141.34375 150.898438 141.230469 150.867188 C 141.121094 150.835938 141.007812 150.800781 140.898438 150.769531 C 140.464844 150.636719 140.035156 150.515625 139.632812 150.367188 C 139.429688 150.296875 139.230469 150.230469 139.035156 150.164062 C 138.839844 150.09375 138.652344 150.015625 138.464844 149.941406 C 138.28125 149.871094 138.097656 149.796875 137.917969 149.726562 C 137.742188 149.65625 137.574219 149.578125 137.40625 149.503906 C 137.074219 149.359375 136.753906 149.222656 136.464844 149.074219 C 136.316406 149 136.171875 148.929688 136.03125 148.863281 C 136.078125 148.964844 136.125 149.066406 136.171875 149.175781 C 136.476562 149.851562 136.820312 150.566406 137.148438 151.339844 C 137.476562 152.113281 137.792969 152.933594 138.039062 153.808594 C 138.355469 154.941406 139.183594 155.207031 139.929688 156.078125 C 140.378906 156.601562 140.640625 157.277344 141.222656 157.6875 C 141.921875 158.183594 142.714844 157.929688 143.488281 158.144531 C 144.410156 158.402344 145.210938 159.042969 145.835938 159.753906 C 146.734375 160.773438 147.386719 161.992188 148.296875 163 C 149.210938 164.003906 150.515625 164.816406 151.859375 164.617188 C 150.585938 164.910156 149.265625 164.253906 148.316406 163.359375 C 147.363281 162.46875 146.660156 161.34375 145.761719 160.394531 C 144.820312 159.394531 143.359375 158.367188 141.914062 158.796875 C 141.867188 158.8125 141.828125 158.824219 141.792969 158.839844 C 141.839844 158.953125 141.882812 159.0625 141.925781 159.175781 C 142 159.359375 142.050781 159.558594 142.117188 159.75 L 142.121094 159.769531 L 142.128906 159.800781 L 142.136719 159.835938 L 142.15625 159.90625 L 142.191406 160.046875 C 142.214844 160.144531 142.242188 160.234375 142.261719 160.339844 C 142.347656 160.757812 142.417969 161.167969 142.460938 161.589844 C 142.554688 162.425781 142.585938 163.28125 142.632812 164.132812 C 142.679688 164.988281 142.742188 165.847656 142.921875 166.671875 L 142.992188 166.980469 L 143.082031 167.285156 L 143.121094 167.4375 C 143.140625 167.488281 143.160156 167.535156 143.175781 167.585938 L 143.28125 167.882812 C 143.441406 168.277344 143.628906 168.640625 143.847656 169 C 144.277344 169.71875 144.8125 170.371094 145.34375 170.988281 C 145.875 171.609375 146.410156 172.199219 146.882812 172.792969 C 147.355469 173.382812 147.769531 173.96875 148.125 174.523438 C 148.835938 175.636719 149.308594 176.628906 149.617188 177.332031 C 149.765625 177.6875 149.875 177.964844 149.949219 178.15625 C 150.019531 178.351562 150.058594 178.453125 150.058594 178.453125 C 150.058594 178.453125 150.015625 178.351562 149.9375 178.164062 C 149.855469 177.976562 149.730469 177.699219 149.566406 177.355469 C 149.230469 176.671875 148.710938 175.703125 147.960938 174.636719 C 147.585938 174.097656 147.152344 173.542969 146.660156 172.980469 C 146.167969 172.417969 145.609375 171.855469 145.046875 171.257812 C 144.484375 170.652344 143.90625 170.015625 143.414062 169.277344 C 143.167969 168.914062 142.9375 168.507812 142.753906 168.105469 L 142.625 167.789062 C 142.605469 167.738281 142.582031 167.683594 142.5625 167.632812 L 142.507812 167.46875 L 142.398438 167.148438 L 142.308594 166.820312 C 142.078125 165.945312 141.976562 165.054688 141.886719 164.191406 C 141.800781 163.328125 141.734375 162.492188 141.609375 161.703125 C 141.546875 161.304688 141.464844 160.925781 141.375 160.574219 C 141.355469 160.484375 141.320312 160.386719 141.296875 160.296875 L 141.253906 160.15625 L 141.230469 160.085938 L 141.222656 160.050781 L 141.21875 160.042969 C 141.222656 160.046875 141.214844 160.023438 141.222656 160.046875 L 141.214844 160.03125 C 141.148438 159.859375 141.097656 159.691406 141.023438 159.53125 C 140.75 158.878906 140.40625 158.300781 140.027344 157.816406 C 139.652344 157.328125 139.253906 156.929688 138.875 156.605469 C 138.742188 156.492188 138.613281 156.390625 138.484375 156.296875 C 138.492188 156.402344 138.496094 156.503906 138.5 156.605469 C 138.507812 156.730469 138.507812 156.855469 138.507812 156.976562 L 138.492188 157.347656 L 138.472656 157.714844 C 138.46875 157.839844 138.445312 157.960938 138.429688 158.082031 C 138.394531 158.328125 138.371094 158.574219 138.3125 158.808594 C 138.261719 159.050781 138.21875 159.289062 138.144531 159.519531 C 137.890625 160.457031 137.511719 161.324219 137.125 162.136719 C 136.734375 162.949219 136.328125 163.71875 135.984375 164.484375 C 135.644531 165.25 135.363281 166.019531 135.195312 166.804688 C 135.117188 167.199219 135.046875 167.59375 135.027344 168 L 135.011719 168.148438 L 135 168.605469 C 135 168.808594 135 169.011719 135.011719 169.214844 C 135.09375 170.847656 135.527344 172.46875 136.078125 173.984375 C 136.636719 175.507812 137.300781 176.976562 137.769531 178.441406 C 138.003906 179.167969 138.199219 179.894531 138.335938 180.605469 C 138.472656 181.316406 138.554688 182.015625 138.558594 182.691406 C 138.570312 183.367188 138.488281 184.019531 138.335938 184.613281 C 138.183594 185.207031 137.980469 185.746094 137.785156 186.246094 C 137.585938 186.746094 137.394531 187.207031 137.25 187.644531 C 137.101562 188.078125 136.996094 188.488281 136.929688 188.867188 C 136.789062 189.617188 136.792969 190.226562 136.847656 190.632812 C 136.855469 190.683594 136.859375 190.730469 136.863281 190.777344 C 136.871094 190.820312 136.882812 190.863281 136.886719 190.902344 C 136.902344 190.976562 136.914062 191.042969 136.929688 191.09375 C 136.914062 191.042969 136.902344 190.976562 136.886719 190.902344 C 136.882812 190.863281 136.871094 190.820312 136.863281 190.777344 C 136.859375 190.730469 136.855469 190.683594 136.847656 190.632812 C 136.792969 190.226562 136.785156 189.617188 136.921875 188.863281 C 136.984375 188.488281 137.085938 188.078125 137.226562 187.636719 C 137.371094 187.199219 137.554688 186.734375 137.742188 186.230469 C 137.933594 185.730469 138.125 185.1875 138.261719 184.59375 C 138.398438 184.003906 138.464844 183.359375 138.4375 182.695312 C 138.410156 182.03125 138.3125 181.34375 138.148438 180.648438 C 137.996094 179.949219 137.777344 179.242188 137.511719 178.53125 C 136.988281 177.105469 136.265625 175.6875 135.609375 174.175781 C 135.058594 172.882812 134.566406 171.5 134.300781 170.039062 C 134.175781 170.347656 134.039062 170.664062 133.875 170.980469 C 133.648438 171.410156 133.386719 171.828125 133.0625 172.230469 C 132.984375 172.320312 132.910156 172.40625 132.835938 172.496094 C 132.742188 172.59375 132.648438 172.695312 132.554688 172.792969 L 132.28125 173.058594 L 132 173.3125 C 131.234375 173.976562 130.40625 174.542969 129.699219 175.144531 C 129.34375 175.445312 129.019531 175.753906 128.734375 176.070312 C 128.453125 176.382812 128.214844 176.710938 128.023438 177.027344 C 127.636719 177.664062 127.421875 178.257812 127.304688 178.675781 C 127.246094 178.882812 127.207031 179.054688 127.183594 179.167969 C 127.164062 179.28125 127.152344 179.34375 127.152344 179.34375 C 127.152344 179.34375 127.160156 179.28125 127.175781 179.167969 C 127.195312 179.050781 127.226562 178.878906 127.273438 178.667969 C 127.375 178.242188 127.5625 177.636719 127.929688 176.976562 C 128.113281 176.644531 128.335938 176.300781 128.613281 175.964844 C 128.890625 175.628906 129.207031 175.300781 129.558594 174.980469 C 130.246094 174.339844 131.050781 173.734375 131.765625 173.058594 L 132.03125 172.800781 L 132.28125 172.535156 C 132.363281 172.4375 132.449219 172.339844 132.535156 172.242188 C 132.605469 172.152344 132.675781 172.0625 132.746094 171.972656 C 133.023438 171.597656 133.261719 171.183594 133.453125 170.769531 C 133.773438 170.085938 133.980469 169.394531 134.128906 168.769531 C 134.125 168.722656 134.121094 168.679688 134.117188 168.636719 L 134.101562 168.304688 L 134.09375 168.140625 L 134.09375 167.972656 C 134.082031 167.527344 134.121094 167.085938 134.171875 166.636719 C 134.285156 165.746094 134.523438 164.871094 134.8125 164.023438 C 135.101562 163.179688 135.4375 162.359375 135.734375 161.546875 C 136.023438 160.761719 136.265625 159.980469 136.398438 159.207031 C 136.28125 159.316406 136.160156 159.429688 136.023438 159.535156 C 135.433594 160.023438 134.714844 160.472656 133.890625 160.828125 C 133.480469 161.015625 133.042969 161.167969 132.582031 161.308594 C 132.46875 161.34375 132.351562 161.375 132.234375 161.410156 C 132.121094 161.4375 132.007812 161.464844 131.890625 161.496094 C 131.671875 161.546875 131.410156 161.605469 131.171875 161.652344 C 130.035156 161.882812 128.832031 161.765625 127.9375 162.636719 C 127.859375 162.714844 127.777344 162.796875 127.6875 162.882812 C 127.601562 162.976562 127.515625 163.074219 127.417969 163.179688 C 127.332031 163.285156 127.234375 163.402344 127.144531 163.523438 C 126.960938 163.777344 126.769531 164.054688 126.605469 164.367188 C 126.429688 164.679688 126.277344 165.027344 126.148438 165.394531 C 126.011719 165.765625 125.917969 166.160156 125.847656 166.566406 C 125.773438 166.972656 125.757812 167.390625 125.761719 167.816406 C 125.769531 168.238281 125.8125 168.675781 125.828125 169.113281 C 125.84375 169.550781 125.824219 169.992188 125.714844 170.410156 C 125.6875 170.511719 125.660156 170.617188 125.617188 170.714844 L 125.585938 170.789062 C 125.582031 170.804688 125.582031 170.808594 125.570312 170.832031 L 125.554688 170.863281 C 125.53125 170.90625 125.507812 170.953125 125.488281 170.996094 C 125.445312 171.082031 125.382812 171.175781 125.332031 171.261719 C 125.269531 171.339844 125.210938 171.421875 125.148438 171.496094 C 124.898438 171.792969 124.605469 172.011719 124.324219 172.191406 C 124.046875 172.371094 123.773438 172.503906 123.53125 172.613281 C 123.285156 172.71875 123.070312 172.804688 122.890625 172.871094 C 122.53125 173 122.324219 173.070312 122.324219 173.070312 C 122.324219 173.070312 122.527344 172.988281 122.875 172.832031 C 123.050781 172.757812 123.257812 172.65625 123.492188 172.535156 C 123.726562 172.414062 123.984375 172.265625 124.246094 172.074219 C 124.503906 171.882812 124.765625 171.652344 124.984375 171.363281 C 125.039062 171.289062 125.085938 171.210938 125.136719 171.136719 C 125.175781 171.054688 125.222656 170.984375 125.261719 170.890625 C 125.28125 170.847656 125.296875 170.800781 125.320312 170.753906 L 125.332031 170.71875 L 125.339844 170.691406 L 125.363281 170.625 C 125.394531 170.535156 125.414062 170.441406 125.433594 170.34375 C 125.503906 169.960938 125.496094 169.554688 125.453125 169.136719 C 125.414062 168.71875 125.339844 168.289062 125.300781 167.839844 C 125.269531 167.394531 125.257812 166.941406 125.308594 166.496094 C 125.355469 166.054688 125.429688 165.617188 125.550781 165.210938 C 125.664062 164.800781 125.804688 164.410156 125.972656 164.054688 C 126.136719 163.695312 126.324219 163.375 126.507812 163.082031 C 126.601562 162.941406 126.699219 162.804688 126.789062 162.679688 C 126.875 162.574219 126.953125 162.472656 127.027344 162.378906 C 126.921875 162.398438 126.820312 162.425781 126.714844 162.449219 C 126.464844 162.507812 126.21875 162.574219 125.972656 162.644531 C 125.851562 162.683594 125.726562 162.714844 125.605469 162.757812 C 125.492188 162.796875 125.375 162.835938 125.257812 162.878906 C 125.132812 162.929688 125.007812 162.980469 124.878906 163.03125 C 124.757812 163.078125 124.652344 163.132812 124.535156 163.183594 C 124.421875 163.230469 124.308594 163.296875 124.191406 163.351562 L 124.019531 163.441406 L 123.851562 163.539062 C 123.398438 163.792969 122.960938 164.085938 122.554688 164.414062 C 122.144531 164.742188 121.757812 165.101562 121.402344 165.484375 C 121.046875 165.871094 120.726562 166.285156 120.433594 166.71875 C 120.289062 166.933594 120.160156 167.15625 120.027344 167.378906 C 119.96875 167.492188 119.90625 167.609375 119.847656 167.71875 L 119.824219 167.761719 C 119.820312 167.769531 119.824219 167.761719 119.824219 167.765625 L 119.816406 167.78125 L 119.804688 167.800781 L 119.761719 167.890625 L 119.679688 168.074219 C 119.460938 168.535156 119.273438 169.019531 119.089844 169.5 C 118.730469 170.460938 118.386719 171.417969 117.925781 172.273438 C 117.695312 172.703125 117.425781 173.101562 117.132812 173.453125 C 116.988281 173.632812 116.824219 173.792969 116.671875 173.949219 L 116.636719 173.984375 L 116.605469 174.007812 L 116.546875 174.0625 C 116.503906 174.09375 116.464844 174.128906 116.425781 174.164062 C 116.347656 174.234375 116.253906 174.296875 116.167969 174.363281 C 115.480469 174.875 114.761719 175.171875 114.117188 175.378906 C 113.472656 175.589844 112.898438 175.707031 112.421875 175.796875 C 111.949219 175.886719 111.574219 175.941406 111.316406 175.980469 C 111.0625 176.015625 110.925781 176.035156 110.925781 176.035156 C 110.925781 176.035156 111.058594 176.007812 111.3125 175.957031 C 111.566406 175.902344 111.9375 175.824219 112.402344 175.710938 C 112.867188 175.59375 113.433594 175.441406 114.054688 175.199219 C 114.671875 174.960938 115.351562 174.625 115.96875 174.113281 C 116.042969 174.046875 116.117188 173.992188 116.195312 173.914062 C 116.230469 173.878906 116.269531 173.839844 116.308594 173.804688 L 116.363281 173.746094 L 116.394531 173.71875 L 116.40625 173.703125 C 116.414062 173.699219 116.40625 173.707031 116.410156 173.703125 L 116.417969 173.695312 C 116.554688 173.539062 116.699219 173.382812 116.820312 173.207031 C 117.074219 172.859375 117.304688 172.480469 117.496094 172.058594 C 117.886719 171.222656 118.167969 170.277344 118.472656 169.285156 C 118.628906 168.792969 118.792969 168.285156 118.996094 167.769531 L 119.070312 167.585938 L 119.105469 167.492188 L 119.117188 167.46875 L 119.132812 167.441406 L 119.152344 167.394531 C 119.210938 167.269531 119.265625 167.140625 119.324219 167.015625 C 119.449219 166.765625 119.578125 166.511719 119.722656 166.273438 C 120.007812 165.789062 120.332031 165.316406 120.695312 164.875 C 121.058594 164.429688 121.457031 164.011719 121.890625 163.625 C 122.316406 163.238281 122.777344 162.886719 123.261719 162.574219 L 123.445312 162.457031 L 123.632812 162.34375 C 123.757812 162.273438 123.878906 162.195312 124.011719 162.128906 C 124.140625 162.0625 124.28125 161.988281 124.402344 161.929688 C 124.527344 161.871094 124.648438 161.8125 124.773438 161.753906 L 124.792969 161.746094 L 124.832031 161.726562 L 124.882812 161.707031 L 124.980469 161.667969 L 125.179688 161.585938 C 125.308594 161.53125 125.445312 161.484375 125.578125 161.433594 C 125.84375 161.339844 126.105469 161.253906 126.371094 161.175781 C 126.902344 161.015625 127.425781 160.886719 127.9375 160.769531 C 128.960938 160.535156 129.933594 160.34375 130.816406 160.109375 C 130.925781 160.082031 131.03125 160.050781 131.136719 160.023438 C 131.242188 159.992188 131.34375 159.964844 131.457031 159.929688 C 131.5625 159.894531 131.664062 159.863281 131.769531 159.828125 C 131.867188 159.796875 131.964844 159.761719 132.0625 159.726562 C 132.449219 159.582031 132.816406 159.429688 133.148438 159.253906 C 133.824219 158.914062 134.371094 158.515625 134.796875 158.125 C 135.855469 157.140625 136.367188 155.898438 135.804688 154.558594 C 135.207031 153.128906 134.363281 151.863281 133.539062 150.5625 C 133.320312 150.214844 133.101562 149.863281 132.890625 149.507812 C 132.816406 149.546875 132.738281 149.574219 132.65625 149.585938 C 132.621094 149.59375 132.582031 149.597656 132.550781 149.601562 C 132.550781 149.601562 132.484375 149.605469 132.371094 149.613281 C 132.3125 149.617188 132.238281 149.625 132.15625 149.628906 C 132.136719 149.628906 132.109375 149.632812 132.09375 149.632812 C 132.078125 149.636719 132.0625 149.640625 132.046875 149.644531 C 132.011719 149.648438 131.976562 149.65625 131.9375 149.664062 C 131.898438 149.667969 131.859375 149.671875 131.816406 149.679688 C 131.773438 149.683594 131.71875 149.703125 131.671875 149.714844 C 131.566406 149.746094 131.449219 149.761719 131.332031 149.8125 C 131.214844 149.855469 131.085938 149.894531 130.953125 149.960938 C 130.890625 149.992188 130.824219 150.019531 130.753906 150.050781 C 130.6875 150.089844 130.621094 150.128906 130.550781 150.167969 C 130.410156 150.242188 130.277344 150.34375 130.132812 150.441406 C 130.058594 150.492188 129.996094 150.554688 129.925781 150.609375 C 129.855469 150.667969 129.785156 150.722656 129.71875 150.789062 C 129.652344 150.855469 129.585938 150.921875 129.515625 150.988281 C 129.453125 151.0625 129.390625 151.136719 129.324219 151.210938 C 129.253906 151.28125 129.203125 151.363281 129.140625 151.445312 C 129.082031 151.527344 129.019531 151.609375 128.972656 151.699219 C 128.742188 152.042969 128.574219 152.4375 128.460938 152.855469 L 128.417969 153.011719 C 128.402344 153.066406 128.398438 153.121094 128.386719 153.171875 C 128.371094 153.28125 128.34375 153.386719 128.335938 153.5 C 128.332031 153.566406 128.328125 153.621094 128.324219 153.671875 C 128.316406 153.726562 128.316406 153.789062 128.3125 153.847656 L 128.300781 154.214844 C 128.28125 154.714844 128.265625 155.265625 128.085938 155.804688 C 128.066406 155.871094 128.039062 155.9375 128.011719 156.003906 L 127.992188 156.050781 L 127.980469 156.074219 C 127.96875 156.105469 127.976562 156.085938 127.972656 156.09375 L 127.964844 156.109375 L 127.921875 156.191406 C 127.90625 156.21875 127.894531 156.242188 127.878906 156.273438 L 127.785156 156.429688 C 127.777344 156.441406 127.769531 156.453125 127.765625 156.464844 L 127.703125 156.546875 C 127.539062 156.769531 127.347656 156.957031 127.144531 157.113281 C 126.734375 157.425781 126.296875 157.621094 125.890625 157.777344 C 125.480469 157.929688 125.089844 158.046875 124.734375 158.164062 C 124.378906 158.273438 124.054688 158.378906 123.773438 158.492188 C 123.492188 158.601562 123.257812 158.710938 123.066406 158.816406 C 122.875 158.917969 122.738281 159.015625 122.640625 159.085938 C 122.546875 159.15625 122.5 159.191406 122.5 159.191406 C 122.5 159.191406 122.542969 159.148438 122.628906 159.070312 C 122.714844 158.992188 122.84375 158.875 123.027344 158.75 C 123.207031 158.621094 123.433594 158.480469 123.703125 158.335938 C 123.976562 158.191406 124.289062 158.046875 124.632812 157.890625 C 124.976562 157.738281 125.347656 157.578125 125.71875 157.386719 C 126.089844 157.195312 126.464844 156.96875 126.765625 156.671875 C 126.917969 156.527344 127.046875 156.359375 127.148438 156.179688 L 127.1875 156.113281 L 127.21875 156.050781 L 127.25 155.984375 C 127.257812 155.960938 127.269531 155.929688 127.28125 155.902344 L 127.3125 155.816406 L 127.328125 155.753906 C 127.347656 155.707031 127.355469 155.65625 127.367188 155.601562 C 127.457031 155.191406 127.421875 154.730469 127.378906 154.238281 L 127.351562 153.859375 C 127.347656 153.792969 127.34375 153.730469 127.34375 153.660156 C 127.339844 153.589844 127.335938 153.519531 127.335938 153.460938 C 127.328125 153.328125 127.34375 153.1875 127.351562 153.050781 C 127.355469 152.980469 127.355469 152.914062 127.363281 152.84375 L 127.394531 152.640625 C 127.476562 152.097656 127.636719 151.570312 127.867188 151.101562 C 127.917969 150.980469 127.984375 150.867188 128.050781 150.757812 C 128.113281 150.644531 128.171875 150.53125 128.246094 150.429688 C 128.316406 150.324219 128.386719 150.21875 128.457031 150.117188 C 128.476562 150.09375 128.492188 150.074219 128.511719 150.050781 C 128.429688 150.050781 128.335938 150.054688 128.238281 150.070312 C 127.9375 150.121094 127.570312 150.273438 127.265625 150.546875 L 127.207031 150.597656 L 127.191406 150.613281 L 127.183594 150.617188 C 127.175781 150.625 127.1875 150.613281 127.1875 150.613281 L 127.183594 150.617188 L 127.152344 150.652344 C 127.109375 150.699219 127.066406 150.742188 127.03125 150.78125 C 127 150.820312 126.960938 150.859375 126.925781 150.90625 C 126.890625 150.953125 126.855469 151 126.824219 151.046875 C 126.6875 151.238281 126.5625 151.449219 126.449219 151.667969 C 126.21875 152.109375 126.027344 152.585938 125.820312 153.027344 C 125.609375 153.46875 125.375 153.867188 125.132812 154.175781 C 125.007812 154.328125 124.886719 154.460938 124.769531 154.566406 C 124.652344 154.675781 124.539062 154.757812 124.445312 154.820312 C 124.351562 154.882812 124.277344 154.929688 124.222656 154.953125 C 124.167969 154.980469 124.140625 154.996094 124.140625 154.996094 C 124.140625 154.996094 124.167969 154.976562 124.214844 154.945312 C 124.265625 154.914062 124.335938 154.855469 124.421875 154.789062 C 124.503906 154.710938 124.601562 154.621094 124.699219 154.5 C 124.800781 154.382812 124.902344 154.242188 124.996094 154.082031 C 125.195312 153.761719 125.367188 153.355469 125.515625 152.90625 C 125.664062 152.453125 125.796875 151.960938 125.976562 151.460938 C 126.066406 151.210938 126.171875 150.964844 126.304688 150.726562 C 126.335938 150.664062 126.367188 150.605469 126.402344 150.550781 C 126.4375 150.492188 126.472656 150.433594 126.515625 150.371094 C 126.554688 150.3125 126.589844 150.265625 126.628906 150.214844 L 126.65625 150.179688 L 126.691406 150.132812 L 126.761719 150.050781 C 127.351562 149.355469 128.0625 149.414062 128.867188 149.195312 C 129.695312 148.96875 130.34375 148.371094 131.152344 148.078125 C 131.226562 148.054688 131.289062 148.023438 131.363281 148.003906 C 131.441406 147.980469 131.511719 147.964844 131.578125 147.945312 C 131.648438 147.925781 131.710938 147.90625 131.773438 147.890625 C 131.804688 147.882812 131.832031 147.875 131.859375 147.871094 C 131.890625 147.859375 131.90625 147.859375 131.929688 147.855469 C 131.953125 147.851562 131.972656 147.847656 131.992188 147.84375 C 131.785156 147.40625 131.589844 146.964844 131.421875 146.523438 C 131.160156 145.832031 130.949219 145.144531 130.796875 144.457031 C 130.648438 143.777344 130.558594 143.097656 130.527344 142.453125 C 130.507812 142.117188 130.507812 141.792969 130.519531 141.484375 C 130.355469 141.53125 130.1875 141.585938 130.007812 141.644531 C 129.460938 141.839844 128.84375 142.113281 128.152344 142.457031 C 127.976562 142.546875 127.804688 142.636719 127.621094 142.726562 C 127.441406 142.820312 127.257812 142.917969 127.070312 143.015625 C 126.886719 143.113281 126.699219 143.214844 126.507812 143.316406 C 126.324219 143.417969 126.132812 143.523438 125.949219 143.632812 C 125.570312 143.847656 125.203125 144.085938 124.839844 144.335938 C 124.480469 144.589844 124.140625 144.867188 123.820312 145.164062 C 123.5 145.464844 123.222656 145.796875 122.988281 146.152344 C 122.757812 146.507812 122.574219 146.890625 122.476562 147.304688 L 122.453125 147.382812 L 122.449219 147.390625 C 122.457031 147.339844 122.449219 147.386719 122.453125 147.378906 L 122.449219 147.402344 L 122.4375 147.449219 L 122.402344 147.640625 C 122.390625 147.753906 122.375 147.835938 122.363281 147.953125 C 122.34375 148.179688 122.335938 148.417969 122.339844 148.664062 C 122.34375 149.15625 122.386719 149.683594 122.410156 150.234375 C 122.429688 150.789062 122.429688 151.371094 122.324219 151.96875 L 122.285156 152.191406 L 122.265625 152.277344 L 122.25 152.324219 L 122.222656 152.421875 L 122.140625 152.703125 C 122.128906 152.738281 122.113281 152.777344 122.097656 152.816406 C 122.042969 152.960938 121.984375 153.113281 121.921875 153.25 C 121.855469 153.382812 121.785156 153.515625 121.71875 153.644531 C 121.382812 154.226562 121.117188 154.792969 121.210938 155.488281 C 121.367188 156.65625 120.84375 157.8125 120.164062 158.769531 C 119.484375 159.730469 118.636719 160.566406 118 161.554688 C 117.367188 162.542969 116.945312 163.765625 117.257812 164.898438 C 116.863281 163.863281 117.117188 162.683594 117.605469 161.691406 C 118.097656 160.695312 118.8125 159.832031 119.40625 158.898438 C 120.023438 157.933594 120.75 156.546875 120.359375 155.371094 C 120.351562 155.347656 120.34375 155.324219 120.335938 155.304688 C 120.050781 155.558594 119.753906 155.792969 119.449219 156.003906 C 118.605469 156.601562 117.738281 157.0625 116.921875 157.480469 C 116.101562 157.890625 115.332031 158.277344 114.617188 158.636719 C 113.910156 158.996094 113.257812 159.324219 112.679688 159.617188 C 112.109375 159.910156 111.636719 160.210938 111.289062 160.511719 C 111.117188 160.660156 110.980469 160.8125 110.867188 160.953125 C 110.761719 161.097656 110.679688 161.222656 110.621094 161.332031 C 110.59375 161.386719 110.570312 161.441406 110.550781 161.480469 C 110.535156 161.523438 110.519531 161.5625 110.507812 161.59375 C 110.484375 161.652344 110.472656 161.683594 110.472656 161.683594 C 110.472656 161.683594 110.484375 161.652344 110.5 161.589844 C 110.507812 161.558594 110.519531 161.519531 110.535156 161.472656 C 110.550781 161.429688 110.570312 161.378906 110.59375 161.320312 C 110.640625 161.203125 110.714844 161.066406 110.8125 160.910156 C 110.914062 160.761719 111.042969 160.589844 111.207031 160.421875 C 111.53125 160.082031 111.996094 159.734375 112.546875 159.386719 C 113.101562 159.046875 113.722656 158.664062 114.402344 158.246094 C 115.082031 157.828125 115.816406 157.375 116.59375 156.898438 C 117.363281 156.421875 118.164062 155.902344 118.894531 155.285156 C 119.265625 154.976562 119.613281 154.644531 119.917969 154.28125 C 120.226562 153.914062 120.488281 153.523438 120.6875 153.105469 C 120.730469 153 120.773438 152.890625 120.816406 152.785156 C 120.851562 152.683594 120.878906 152.582031 120.914062 152.484375 C 120.917969 152.457031 120.929688 152.4375 120.9375 152.40625 L 120.953125 152.308594 L 120.996094 152.117188 L 121.015625 152.019531 L 121.027344 151.96875 C 121.011719 152.03125 121.019531 151.980469 121.019531 151.992188 L 121.019531 151.960938 L 121.039062 151.792969 C 121.082031 151.335938 121.042969 150.851562 120.980469 150.347656 C 120.917969 149.84375 120.828125 149.316406 120.773438 148.75 C 120.746094 148.46875 120.730469 148.179688 120.730469 147.878906 C 120.730469 147.734375 120.742188 147.554688 120.753906 147.40625 L 120.773438 147.207031 L 120.777344 147.160156 L 120.78125 147.136719 C 120.785156 147.117188 120.777344 147.15625 120.785156 147.09375 L 120.789062 147.082031 L 120.808594 146.96875 C 120.886719 146.457031 121.054688 145.96875 121.265625 145.515625 C 121.226562 145.511719 121.1875 145.511719 121.148438 145.507812 C 120.972656 145.492188 120.78125 145.496094 120.578125 145.496094 C 120.527344 145.5 120.472656 145.5 120.421875 145.5 C 120.371094 145.503906 120.316406 145.507812 120.261719 145.511719 C 120.152344 145.519531 120.042969 145.527344 119.925781 145.535156 C 119.8125 145.546875 119.695312 145.566406 119.578125 145.582031 C 119.457031 145.597656 119.332031 145.609375 119.210938 145.636719 C 119.085938 145.664062 118.957031 145.6875 118.828125 145.714844 C 118.703125 145.75 118.574219 145.785156 118.4375 145.820312 C 118.304688 145.851562 118.175781 145.898438 118.039062 145.945312 C 117.90625 145.988281 117.769531 146.03125 117.636719 146.089844 C 117.089844 146.296875 116.539062 146.582031 116.007812 146.9375 C 115.476562 147.292969 114.976562 147.722656 114.511719 148.21875 C 114.058594 148.71875 113.632812 149.300781 113.152344 149.855469 C 113.035156 149.992188 112.910156 150.128906 112.78125 150.265625 C 112.714844 150.332031 112.652344 150.398438 112.585938 150.460938 L 112.535156 150.511719 L 112.496094 150.542969 L 112.472656 150.566406 L 112.371094 150.652344 C 112.234375 150.765625 112.105469 150.882812 111.957031 150.996094 C 111.804688 151.105469 111.652344 151.210938 111.5 151.320312 C 110.878906 151.714844 110.222656 152.003906 109.574219 152.21875 C 108.921875 152.433594 108.269531 152.554688 107.65625 152.652344 C 107.347656 152.6875 107.046875 152.730469 106.757812 152.75 C 106.613281 152.757812 106.46875 152.773438 106.328125 152.78125 C 106.1875 152.785156 106.050781 152.792969 105.914062 152.800781 C 105.375 152.820312 104.882812 152.820312 104.445312 152.8125 C 104.007812 152.800781 103.625 152.789062 103.3125 152.773438 C 103 152.757812 102.753906 152.742188 102.585938 152.734375 C 102.417969 152.722656 102.328125 152.71875 102.328125 152.71875 C 102.328125 152.71875 102.417969 152.71875 102.585938 152.71875 C 102.753906 152.71875 103 152.722656 103.3125 152.71875 C 103.625 152.714844 104.007812 152.707031 104.441406 152.695312 C 104.878906 152.679688 105.371094 152.652344 105.902344 152.601562 C 106.035156 152.589844 106.171875 152.578125 106.308594 152.5625 C 106.449219 152.546875 106.585938 152.527344 106.730469 152.507812 C 107.015625 152.476562 107.308594 152.414062 107.609375 152.363281 C 108.203125 152.238281 108.828125 152.082031 109.441406 151.84375 C 110.050781 151.601562 110.65625 151.292969 111.207031 150.898438 C 111.339844 150.796875 111.46875 150.691406 111.601562 150.589844 C 111.730469 150.480469 111.859375 150.347656 111.988281 150.226562 L 112.085938 150.132812 L 112.109375 150.113281 C 112.109375 150.113281 112.125 150.097656 112.105469 150.117188 L 112.113281 150.109375 L 112.121094 150.097656 L 112.164062 150.050781 C 112.226562 149.988281 112.28125 149.921875 112.339844 149.859375 C 112.449219 149.726562 112.558594 149.59375 112.664062 149.453125 C 113.09375 148.902344 113.484375 148.300781 113.949219 147.726562 C 114.414062 147.164062 114.949219 146.65625 115.511719 146.234375 C 116.074219 145.808594 116.667969 145.460938 117.257812 145.195312 C 117.402344 145.125 117.550781 145.070312 117.699219 145.011719 C 117.84375 144.953125 117.988281 144.890625 118.136719 144.847656 C 118.28125 144.800781 118.421875 144.75 118.566406 144.707031 C 118.707031 144.671875 118.847656 144.632812 118.984375 144.597656 C 119.121094 144.5625 119.261719 144.539062 119.394531 144.507812 C 119.527344 144.484375 119.65625 144.457031 119.785156 144.4375 C 119.914062 144.421875 120.042969 144.40625 120.164062 144.386719 C 120.222656 144.382812 120.285156 144.375 120.34375 144.367188 C 121.960938 144.261719 122.394531 143.65625 123.5625 142.691406 C 123.964844 142.359375 124.363281 142.054688 124.757812 141.78125 C 124.953125 141.640625 125.148438 141.511719 125.339844 141.382812 C 125.53125 141.257812 125.71875 141.136719 125.90625 141.015625 C 126.089844 140.898438 126.269531 140.785156 126.449219 140.671875 C 126.628906 140.558594 126.808594 140.449219 126.980469 140.34375 C 127.683594 139.914062 128.371094 139.535156 129.023438 139.238281 C 129.679688 138.941406 130.300781 138.730469 130.832031 138.601562 C 130.855469 138.597656 130.871094 138.59375 130.894531 138.585938 C 130.910156 138.511719 130.925781 138.441406 130.941406 138.371094 C 130.828125 138.351562 130.707031 138.328125 130.570312 138.316406 C 130.210938 138.277344 129.75 138.269531 129.203125 138.335938 C 128.929688 138.367188 128.636719 138.421875 128.324219 138.492188 C 128.011719 138.566406 127.679688 138.65625 127.332031 138.773438 C 126.984375 138.886719 126.625 139.019531 126.25 139.171875 C 126.207031 139.1875 126.160156 139.207031 126.113281 139.226562 C 126.066406 139.246094 126.015625 139.269531 125.964844 139.289062 C 125.867188 139.332031 125.769531 139.375 125.667969 139.417969 C 125.472656 139.503906 125.273438 139.589844 125.070312 139.679688 C 124.246094 140.042969 123.363281 140.457031 122.382812 140.8125 C 121.894531 140.988281 121.378906 141.152344 120.84375 141.277344 C 120.574219 141.34375 120.300781 141.394531 120.023438 141.441406 L 119.8125 141.46875 L 119.707031 141.480469 L 119.683594 141.488281 C 119.613281 141.496094 119.65625 141.488281 119.636719 141.492188 L 119.625 141.492188 L 119.578125 141.496094 C 119.449219 141.503906 119.320312 141.515625 119.191406 141.523438 L 118.996094 141.539062 C 118.929688 141.542969 118.851562 141.542969 118.78125 141.542969 C 118.632812 141.542969 118.484375 141.542969 118.335938 141.542969 C 118.1875 141.546875 118.050781 141.535156 117.910156 141.523438 L 117.488281 141.496094 C 117.269531 141.46875 117.050781 141.441406 116.832031 141.410156 C 116.652344 141.425781 116.46875 141.445312 116.277344 141.46875 C 116.074219 141.496094 115.863281 141.527344 115.648438 141.558594 C 115.4375 141.597656 115.21875 141.628906 115 141.679688 C 114.78125 141.726562 114.558594 141.769531 114.335938 141.835938 C 114.226562 141.867188 114.113281 141.894531 114 141.929688 C 113.890625 141.964844 113.78125 142 113.671875 142.035156 C 113.445312 142.105469 113.230469 142.199219 113.011719 142.285156 C 112.898438 142.328125 112.796875 142.386719 112.6875 142.433594 C 112.582031 142.488281 112.472656 142.535156 112.371094 142.59375 L 112.0625 142.769531 C 112.011719 142.800781 111.957031 142.828125 111.910156 142.859375 L 111.761719 142.960938 C 111.664062 143.027344 111.566406 143.09375 111.46875 143.160156 C 111.378906 143.234375 111.289062 143.308594 111.195312 143.378906 C 110.828125 143.671875 110.511719 144.011719 110.199219 144.351562 C 109.886719 144.691406 109.585938 145.03125 109.28125 145.332031 C 109.125 145.484375 108.972656 145.621094 108.8125 145.757812 C 108.773438 145.785156 108.734375 145.820312 108.699219 145.847656 C 108.65625 145.878906 108.617188 145.910156 108.578125 145.9375 C 108.496094 146 108.417969 146.050781 108.335938 146.101562 C 108.019531 146.304688 107.703125 146.453125 107.40625 146.542969 C 107.117188 146.632812 106.847656 146.667969 106.628906 146.671875 C 106.523438 146.675781 106.425781 146.664062 106.339844 146.660156 C 106.257812 146.648438 106.1875 146.636719 106.128906 146.625 C 106.015625 146.597656 105.957031 146.582031 105.957031 146.582031 C 105.957031 146.582031 106.015625 146.59375 106.132812 146.613281 C 106.1875 146.617188 106.261719 146.621094 106.34375 146.628906 C 106.425781 146.625 106.523438 146.628906 106.628906 146.617188 C 106.839844 146.597656 107.09375 146.542969 107.367188 146.429688 C 107.644531 146.324219 107.9375 146.15625 108.226562 145.941406 C 108.296875 145.886719 108.371094 145.828125 108.441406 145.765625 C 108.476562 145.738281 108.511719 145.707031 108.546875 145.675781 C 108.582031 145.640625 108.617188 145.605469 108.652344 145.574219 C 108.789062 145.4375 108.929688 145.289062 109.066406 145.128906 C 109.339844 144.816406 109.609375 144.460938 109.894531 144.09375 C 110.035156 143.910156 110.183594 143.722656 110.34375 143.539062 C 110.503906 143.351562 110.667969 143.171875 110.855469 143 L 110.863281 142.992188 C 111.015625 142.855469 111.269531 142.632812 111.425781 142.5 L 111.574219 142.378906 C 111.625 142.335938 111.679688 142.304688 111.734375 142.265625 L 112.050781 142.050781 C 112.15625 141.980469 112.269531 141.917969 112.378906 141.851562 C 112.492188 141.789062 112.597656 141.71875 112.714844 141.664062 C 112.941406 141.550781 113.167969 141.433594 113.402344 141.339844 C 113.519531 141.289062 113.632812 141.242188 113.746094 141.195312 C 113.867188 141.148438 113.980469 141.109375 114.097656 141.066406 C 114.269531 141 114.445312 140.945312 114.621094 140.894531 C 113.988281 140.703125 113.371094 140.492188 112.773438 140.277344 C 111.789062 139.921875 110.839844 139.554688 109.917969 139.242188 C 109.457031 139.085938 109 138.941406 108.554688 138.824219 C 108.4375 138.789062 108.324219 138.761719 108.210938 138.730469 C 108.101562 138.703125 107.988281 138.675781 107.878906 138.652344 C 107.660156 138.59375 107.4375 138.550781 107.21875 138.507812 C 106.347656 138.332031 105.507812 138.222656 104.726562 138.167969 C 103.949219 138.113281 103.230469 138.105469 102.59375 138.128906 C 101.957031 138.15625 101.398438 138.199219 100.945312 138.257812 C 100.714844 138.285156 100.511719 138.3125 100.335938 138.339844 C 100.160156 138.367188 100.007812 138.390625 99.886719 138.414062 C 99.644531 138.457031 99.515625 138.480469 99.515625 138.480469 C 99.515625 138.480469 99.644531 138.445312 99.882812 138.382812 C 100 138.347656 100.148438 138.3125 100.324219 138.277344 C 100.496094 138.230469 100.699219 138.1875 100.925781 138.140625 C 101.378906 138.046875 101.933594 137.957031 102.574219 137.878906 C 103.214844 137.800781 103.945312 137.746094 104.742188 137.738281 C 105.539062 137.726562 106.40625 137.769531 107.320312 137.875 C 107.546875 137.902344 107.777344 137.929688 108.015625 137.96875 C 108.132812 137.984375 108.25 138.003906 108.371094 138.023438 C 108.484375 138.046875 108.601562 138.066406 108.71875 138.089844 C 109.195312 138.175781 109.675781 138.289062 110.164062 138.410156 C 111.132812 138.648438 112.117188 138.9375 113.109375 139.207031 C 114.101562 139.476562 115.101562 139.722656 116.097656 139.867188 L 116.285156 139.894531 L 116.472656 139.914062 L 116.84375 139.953125 C 117.09375 139.976562 117.339844 139.980469 117.582031 139.996094 L 117.945312 139.988281 C 118.066406 139.988281 118.191406 139.992188 118.300781 139.976562 L 118.640625 139.949219 C 118.699219 139.941406 118.75 139.941406 118.8125 139.933594 L 119.003906 139.90625 C 119.132812 139.882812 119.261719 139.863281 119.386719 139.84375 L 119.4375 139.835938 L 119.449219 139.835938 C 119.4375 139.835938 119.488281 139.828125 119.429688 139.835938 L 119.449219 139.832031 L 119.535156 139.8125 L 119.703125 139.773438 C 119.929688 139.71875 120.152344 139.660156 120.375 139.582031 C 120.816406 139.441406 121.25 139.261719 121.671875 139.070312 C 122.519531 138.683594 123.332031 138.222656 124.132812 137.785156 C 124.335938 137.675781 124.535156 137.566406 124.734375 137.460938 C 124.832031 137.40625 124.929688 137.355469 125.027344 137.304688 C 125.074219 137.28125 125.125 137.253906 125.171875 137.230469 C 125.222656 137.203125 125.273438 137.179688 125.324219 137.152344 C 126.480469 136.566406 127.757812 136.390625 128.898438 135.789062 C 131.5625 134.378906 131.632812 130.625 131.539062 127.636719 C 131.558594 127.628906 131.578125 127.625 131.59375 127.621094 C 131.511719 127.644531 131.429688 127.667969 131.34375 127.691406 C 131.050781 127.78125 130.757812 127.882812 130.464844 127.996094 C 129.882812 128.214844 129.300781 128.480469 128.714844 128.777344 C 127.542969 129.367188 126.371094 130.082031 125.121094 130.839844 C 123.867188 131.59375 122.546875 132.410156 120.941406 133.152344 C 119.351562 133.902344 117.398438 134.519531 115.320312 134.765625 C 113.226562 135.015625 110.960938 134.839844 109.070312 134.347656 C 107.179688 133.855469 105.605469 133.15625 104.210938 132.449219 C 103.515625 132.09375 102.863281 131.730469 102.230469 131.367188 C 101.640625 131.023438 101.054688 130.675781 100.46875 130.332031 C 99.261719 129.644531 98.066406 128.964844 96.878906 128.289062 L 96.769531 128.226562 C 96.738281 128.210938 96.738281 128.210938 96.746094 128.214844 L 96.542969 128.113281 C 96.417969 128.046875 96.289062 127.988281 96.160156 127.925781 C 95.898438 127.804688 95.632812 127.691406 95.363281 127.585938 C 94.824219 127.375 94.269531 127.191406 93.695312 127.039062 C 92.566406 126.738281 91.3125 126.566406 90.167969 126.519531 C 88.886719 126.472656 87.703125 126.550781 86.519531 126.730469 C 86.234375 126.777344 85.917969 126.832031 85.667969 126.882812 L 85.425781 126.9375 C 85.394531 126.941406 85.316406 126.960938 85.324219 126.957031 L 85.222656 126.984375 L 84.8125 127.085938 C 84.269531 127.226562 83.734375 127.40625 83.203125 127.609375 C 82.144531 128.019531 81.121094 128.527344 80.105469 129.074219 C 78.070312 130.164062 76.125 131.449219 73.773438 132.460938 C 73.175781 132.714844 72.585938 132.933594 71.90625 133.144531 C 71.722656 133.199219 71.582031 133.238281 71.441406 133.277344 L 71.191406 133.34375 L 70.945312 133.398438 C 70.617188 133.46875 70.289062 133.539062 69.964844 133.609375 C 68.632812 133.847656 67.242188 133.921875 65.929688 133.800781 C 64.613281 133.683594 63.398438 133.398438 62.332031 133.035156 C 61.269531 132.664062 60.335938 132.234375 59.480469 131.800781 C 59.296875 131.703125 59.117188 131.605469 58.9375 131.507812 C 64.742188 168.863281 97.125 197.546875 136.085938 197.546875 C 174.945312 197.546875 207.261719 169.007812 213.183594 131.789062 C 213.078125 131.847656 212.972656 131.90625 212.867188 131.964844 "/></g></svg>